<svg width="25" height="25" viewBox="0 0 25 25" fill="none" xmlns="http://www.w3.org/2000/svg">
<mask id="mask0_46_7" style="mask-type:alpha" maskUnits="userSpaceOnUse" x="0" y="0" width="25" height="25">
<rect x="0.729126" y="0.483397" width="24" height="24" fill="#D9D9D9"/>
</mask>
<g mask="url(#mask0_46_7)">
<path d="M16.7291 17.4834C18.1125 17.4834 19.2918 16.9957 20.2671 16.0204C21.2418 15.0457 21.7291 13.8667 21.7291 12.4834C21.7291 11.1001 21.2418 9.92073 20.2671 8.9454C19.2918 7.97073 18.1125 7.4834 16.7291 7.4834C16.2791 7.4834 15.8418 7.54173 15.4171 7.6584C14.9918 7.77506 14.5958 7.94173 14.2291 8.1584C14.7125 8.7584 15.0835 9.42506 15.3421 10.1584C15.6001 10.8917 15.7291 11.6667 15.7291 12.4834C15.7291 13.3001 15.6001 14.0751 15.3421 14.8084C15.0835 15.5417 14.7125 16.2084 14.2291 16.8084C14.5958 17.0251 14.9918 17.1917 15.4171 17.3084C15.8418 17.4251 16.2791 17.4834 16.7291 17.4834ZM12.7291 15.4834C13.0458 15.0667 13.2918 14.6044 13.4671 14.0964C13.6418 13.5877 13.7291 13.0501 13.7291 12.4834C13.7291 11.9167 13.6418 11.3791 13.4671 10.8704C13.2918 10.3624 13.0458 9.90006 12.7291 9.4834C12.4125 9.90006 12.1665 10.3624 11.9911 10.8704C11.8165 11.3791 11.7291 11.9167 11.7291 12.4834C11.7291 13.0501 11.8165 13.5877 11.9911 14.0964C12.1665 14.6044 12.4125 15.0667 12.7291 15.4834ZM8.72913 17.4834C9.17913 17.4834 9.61646 17.4251 10.0411 17.3084C10.4665 17.1917 10.8625 17.0251 11.2291 16.8084C10.7458 16.2084 10.3748 15.5417 10.1161 14.8084C9.85813 14.0751 9.72913 13.3001 9.72913 12.4834C9.72913 11.6667 9.85813 10.8917 10.1161 10.1584C10.3748 9.42506 10.7458 8.7584 11.2291 8.1584C10.8625 7.94173 10.4665 7.77506 10.0411 7.6584C9.61646 7.54173 9.17913 7.4834 8.72913 7.4834C7.34579 7.4834 6.16679 7.97073 5.19213 8.9454C4.21679 9.92073 3.72913 11.1001 3.72913 12.4834C3.72913 13.8667 4.21679 15.0457 5.19213 16.0204C6.16679 16.9957 7.34579 17.4834 8.72913 17.4834ZM8.72913 19.4834C6.77913 19.4834 5.12513 18.8041 3.76713 17.4454C2.40846 16.0874 1.72913 14.4334 1.72913 12.4834C1.72913 10.5334 2.40846 8.87906 3.76713 7.5204C5.12513 6.1624 6.77913 5.4834 8.72913 5.4834C9.47913 5.4834 10.1915 5.59173 10.8661 5.8084C11.5415 6.02506 12.1625 6.3334 12.7291 6.7334C13.2958 6.3334 13.9168 6.02506 14.5921 5.8084C15.2668 5.59173 15.9791 5.4834 16.7291 5.4834C18.6791 5.4834 20.3331 6.1624 21.6911 7.5204C23.0498 8.87906 23.7291 10.5334 23.7291 12.4834C23.7291 14.4334 23.0498 16.0874 21.6911 17.4454C20.3331 18.8041 18.6791 19.4834 16.7291 19.4834C15.9791 19.4834 15.2668 19.3751 14.5921 19.1584C13.9168 18.9417 13.2958 18.6334 12.7291 18.2334C12.1625 18.6334 11.5415 18.9417 10.8661 19.1584C10.1915 19.3751 9.47913 19.4834 8.72913 19.4834Z" fill="#1C1B1F"/>
</g>
</svg>
