<svg width="18" height="22" viewBox="0 0 18 22" fill="none" xmlns="http://www.w3.org/2000/svg">
<path d="M0 22V15C0 13.6167 0.487666 12.4373 1.463 11.462C2.43767 10.4873 3.61667 10 5 10H6V2C6 1.45 6.196 0.979 6.588 0.587C6.97933 0.195667 7.45 0 8 0H10C10.55 0 11.021 0.195667 11.413 0.587C11.8043 0.979 12 1.45 12 2V10H13C14.3833 10 15.5627 10.4873 16.538 11.462C17.5127 12.4373 18 13.6167 18 15V22H0ZM2 20H4V17C4 16.7167 4.09567 16.4793 4.287 16.288C4.479 16.096 4.71667 16 5 16C5.28333 16 5.521 16.096 5.713 16.288C5.90433 16.4793 6 16.7167 6 17V20H8V17C8 16.7167 8.096 16.4793 8.288 16.288C8.47933 16.096 8.71667 16 9 16C9.28333 16 9.521 16.096 9.713 16.288C9.90433 16.4793 10 16.7167 10 17V20H12V17C12 16.7167 12.096 16.4793 12.288 16.288C12.4793 16.096 12.7167 16 13 16C13.2833 16 13.5207 16.096 13.712 16.288C13.904 16.4793 14 16.7167 14 17V20H16V15C16 14.1667 15.7083 13.4583 15.125 12.875C14.5417 12.2917 13.8333 12 13 12H5C4.16667 12 3.45833 12.2917 2.875 12.875C2.29167 13.4583 2 14.1667 2 15V20ZM10 10V2H8V10H10Z" fill="#1C1B1F"/>
</svg>
