<svg width="21" height="24" viewBox="0 0 21 24" fill="none" xmlns="http://www.w3.org/2000/svg">
<path d="M18 6.32422L17.05 3.82178L15 2.66211L17.05 1.50244L18 -1L18.95 1.50244L21 2.66211L18.95 3.82178L18 6.32422ZM6.5 6.32422L5.55 3.82178L3.5 2.66211L5.55 1.50244L6.5 -1L7.45 1.50244L9.5 2.66211L7.45 3.82178L6.5 6.32422ZM18 20.3623L17.05 17.8599L15 16.7002L17.05 15.5405L18 13.0381L18.95 15.5405L21 16.7002L18.95 17.8599L18 20.3623ZM3.1 24.2686L0.3 20.8506C0.0999999 20.6064 0 20.3114 0 19.9656C0 19.6197 0.0999999 19.3247 0.3 19.0806L11.45 5.46973C11.65 5.22559 11.8917 5.10352 12.175 5.10352C12.4583 5.10352 12.7 5.22559 12.9 5.46973L15.7 8.8877C15.9 9.13184 16 9.42684 16 9.77271C16 10.1186 15.9 10.4136 15.7 10.6577L4.55 24.2686C4.35 24.5127 4.10833 24.6348 3.825 24.6348C3.54167 24.6348 3.3 24.5127 3.1 24.2686ZM3.85 21.7051L11 12.916L9.6 11.207L2.4 19.9351L3.85 21.7051Z" fill="#1C1B1F"/>
</svg>
