<svg width="25" height="25" viewBox="0 0 25 25" fill="none" xmlns="http://www.w3.org/2000/svg">
<mask id="mask0_48_19" style="mask-type:alpha" maskUnits="userSpaceOnUse" x="0" y="0" width="25" height="25">
<rect x="0.430664" y="0.132828" width="24" height="24" fill="#D9D9D9"/>
</mask>
<g mask="url(#mask0_48_19)">
<path d="M11.4307 22.1328V17.1328C11.4307 16.1995 11.289 15.5078 11.0057 15.0578C10.7223 14.6078 10.3473 14.1662 9.88066 13.7328L11.3057 12.3078C11.5057 12.4912 11.6973 12.6868 11.8807 12.8948C12.064 13.1035 12.2473 13.3245 12.4307 13.5578C12.664 13.2412 12.9017 12.9618 13.1437 12.7198C13.385 12.4785 13.6307 12.2412 13.8807 12.0078C14.514 11.4245 15.089 10.7495 15.6057 9.98283C16.1223 9.21616 16.3973 7.87449 16.4307 5.95783L14.8557 7.53283L13.4307 6.13283L17.4307 2.13283L21.4307 6.13283L20.0307 7.53283L18.4307 5.95783C18.3973 8.34116 18.0307 10.0368 17.3307 11.0448C16.6307 12.0535 15.9307 12.8745 15.2307 13.5078C14.6973 13.9912 14.264 14.4618 13.9307 14.9198C13.5973 15.3785 13.4307 16.1162 13.4307 17.1328V22.1328H11.4307ZM6.63066 8.30783C6.564 7.97449 6.518 7.60783 6.49266 7.20783C6.468 6.80783 6.44733 6.39116 6.43066 5.95783L4.83066 7.53283L3.43066 6.13283L7.43066 2.13283L11.4307 6.13283L10.0057 7.53283L8.43066 5.98283C8.43066 6.33283 8.44733 6.66216 8.48066 6.97083C8.514 7.27883 8.54733 7.56616 8.58066 7.83283L6.63066 8.30783ZM8.78066 12.7078C8.44733 12.3578 8.12666 11.9495 7.81866 11.4828C7.51 11.0162 7.239 10.4412 7.00566 9.75783L8.93066 9.28283C9.09733 9.73283 9.289 10.1162 9.50566 10.4328C9.72233 10.7495 9.95566 11.0328 10.2057 11.2828L8.78066 12.7078Z" fill="#1C1B1F"/>
</g>
</svg>
